<svg width="10" height="6" viewBox="0 0 10 6" fill="none" xmlns="http://www.w3.org/2000/svg">
    <path d="M0.220115 0.342033C0.361098 0.201093 0.552285 0.121918 0.751634 0.121918C0.950983 0.121918 1.14217 0.201093 1.28315 0.342033L5.00454 4.06342L8.72592 0.342033C8.86771 0.205088 9.05762 0.129311 9.25474 0.131024C9.45186 0.132736 9.64042 0.211802 9.77981 0.351191C9.91919 0.49058 9.99826 0.679139 9.99997 0.876258C10.0017 1.07338 9.92591 1.26328 9.78896 1.40507L5.53606 5.65798C5.39508 5.79892 5.20389 5.87809 5.00454 5.87809C4.80519 5.87809 4.614 5.79892 4.47302 5.65798L0.220115 1.40507C0.0791756 1.26409 0 1.0729 0 0.873552C0 0.674203 0.0791756 0.483016 0.220115 0.342033Z"
          fill="#6C5478FF"/>
</svg>
