<svg width="20" height="20" viewBox="0 0 20 20" fill="none" xmlns="http://www.w3.org/2000/svg">
<path d="M18.3333 0H1.66667C1.22464 0 0.800716 0.175595 0.488155 0.488155C0.175595 0.800716 0 1.22464 0 1.66667V18.3333C0 18.7754 0.175595 19.1993 0.488155 19.5118C0.800716 19.8244 1.22464 20 1.66667 20H18.3333C18.7754 20 19.1993 19.8244 19.5118 19.5118C19.8244 19.1993 20 18.7754 20 18.3333V1.66667C20 1.22464 19.8244 0.800716 19.5118 0.488155C19.1993 0.175595 18.7754 0 18.3333 0ZM15.5896 14.4104C15.667 14.4878 15.7284 14.5798 15.7703 14.6809C15.8122 14.7821 15.8338 14.8905 15.8338 15C15.8338 15.1095 15.8122 15.2179 15.7703 15.3191C15.7284 15.4202 15.667 15.5122 15.5896 15.5896C15.5122 15.667 15.4202 15.7284 15.3191 15.7703C15.2179 15.8122 15.1095 15.8338 15 15.8338C14.8905 15.8338 14.7821 15.8122 14.6809 15.7703C14.5798 15.7284 14.4878 15.667 14.4104 15.5896L11.4144 12.5928C10.6333 11.8116 9.36671 11.8116 8.58562 12.5928L5.58958 15.5896C5.43322 15.746 5.22114 15.8338 5 15.8338C4.77886 15.8338 4.56678 15.746 4.41042 15.5896C4.25405 15.4332 4.1662 15.2211 4.1662 15C4.1662 14.7789 4.25405 14.5668 4.41042 14.4104L7.40716 11.4144C8.18843 10.6333 8.18843 9.36671 7.40716 8.58562L4.41042 5.58958C4.25405 5.43322 4.1662 5.22114 4.1662 5C4.1662 4.77886 4.25405 4.56678 4.41042 4.41042C4.56678 4.25405 4.77886 4.1662 5 4.1662C5.22114 4.1662 5.43322 4.25405 5.58958 4.41042L8.58562 7.40716C9.36671 8.18843 10.6333 8.18843 11.4144 7.40716L14.4104 4.41042C14.5668 4.25405 14.7789 4.1662 15 4.1662C15.2211 4.1662 15.4332 4.25405 15.5896 4.41042C15.746 4.56678 15.8338 4.77886 15.8338 5C15.8338 5.22114 15.746 5.43322 15.5896 5.58958L12.5928 8.58562C11.8116 9.36671 11.8116 10.6333 12.5928 11.4144L15.5896 14.4104Z" fill="#6C5478"/>
</svg>
