<svg width="20" height="22" viewBox="0 0 20 22" fill="none" xmlns="http://www.w3.org/2000/svg">
<path d="M11.1538 15.8277C11.1538 16.0685 11.0862 16.3039 10.9594 16.5042C10.8326 16.7044 10.6524 16.8604 10.4416 16.9526C10.2307 17.0447 9.99872 17.0688 9.7749 17.0219C9.55107 16.9749 9.34548 16.8589 9.18411 16.6887C9.02274 16.5184 8.91285 16.3014 8.86833 16.0653C8.82381 15.8291 8.84666 15.5843 8.93399 15.3618C9.02132 15.1393 9.16921 14.9492 9.35896 14.8154C9.54871 14.6816 9.77179 14.6102 10 14.6102C10.306 14.6102 10.5995 14.7385 10.8159 14.9668C11.0323 15.1952 11.1538 15.5048 11.1538 15.8277ZM10 4.87008C7.87885 4.87008 6.15385 6.50865 6.15385 8.52263V8.92847C6.15385 9.14374 6.23489 9.3502 6.37915 9.50242C6.52341 9.65464 6.71907 9.74015 6.92308 9.74015C7.12709 9.74015 7.32275 9.65464 7.46701 9.50242C7.61127 9.3502 7.69231 9.14374 7.69231 8.92847V8.52263C7.69231 7.40657 8.72789 6.49343 10 6.49343C11.2721 6.49343 12.3077 7.40657 12.3077 8.52263C12.3077 9.63869 11.2721 10.5518 10 10.5518C9.79599 10.5518 9.60033 10.6373 9.45607 10.7896C9.31182 10.9418 9.23077 11.1482 9.23077 11.3635V12.1752C9.23077 12.3905 9.31182 12.5969 9.45607 12.7491C9.60033 12.9014 9.79599 12.9869 10 12.9869C10.204 12.9869 10.3997 12.9014 10.5439 12.7491C10.6882 12.5969 10.7692 12.3905 10.7692 12.1752V12.1021C12.5231 11.7622 13.8462 10.286 13.8462 8.52263C13.8462 6.50865 12.1212 4.87008 10 4.87008ZM20 10.5518C20 12.6388 19.4135 14.6789 18.3147 16.4141C17.2159 18.1494 15.6541 19.5018 13.8268 20.3005C11.9996 21.0991 9.98891 21.3081 8.0491 20.9009C6.10929 20.4938 4.32746 19.4888 2.92894 18.0131C1.53041 16.5374 0.578004 14.6572 0.192152 12.6104C-0.1937 10.5635 0.00433284 8.44191 0.761209 6.51382C1.51809 4.58572 2.79981 2.93775 4.4443 1.7783C6.08879 0.618854 8.02219 0 10 0C12.6513 0.00295433 15.1932 1.11561 17.068 3.09382C18.9427 5.07203 19.9972 7.75422 20 10.5518ZM18.4615 10.5518C18.4615 8.78595 17.9653 7.05972 17.0355 5.59144C16.1057 4.12316 14.7842 2.97877 13.2381 2.303C11.6919 1.62722 9.99062 1.45041 8.34924 1.79492C6.70786 2.13942 5.20016 2.98978 4.01679 4.23845C2.83343 5.48712 2.02754 7.07802 1.70105 8.80997C1.37456 10.5419 1.54213 12.3371 2.18256 13.9686C2.823 15.6001 3.90753 16.9945 5.29902 17.9756C6.69052 18.9567 8.32647 19.4803 10 19.4803C12.2434 19.4776 14.3941 18.5361 15.9804 16.8622C17.5667 15.1884 18.459 12.919 18.4615 10.5518Z" fill="#6C5478"/>
</svg>
