<svg width="664" height="629" viewBox="0 0 664 629" fill="none" xmlns="http://www.w3.org/2000/svg">
    <path fill-rule="evenodd" clip-rule="evenodd"
          d="M382.934 0.000988458C455.91 -0.364267 457.356 100.588 496.893 151.491C517.89 178.524 536.434 205.182 561.405 229.779C593.05 260.948 655.516 275.029 663.184 315.285C670.608 354.256 625.664 386.331 597.251 417.966C571.433 446.712 533.111 463.702 505.265 491.113C460.179 535.494 452.8 626.094 382.934 628.936C314.859 631.707 299.299 543.226 253.475 501.359C222.85 473.378 191.153 448.862 157.73 423.182C109.001 385.742 32.4157 367.531 11.2921 315.285C-9.87737 262.926 -3.5081 188.916 49.5206 155.545C109.039 118.09 204.653 183.004 269.766 152.627C333.601 122.847 309.704 0.367513 382.934 0.000988458Z"
          fill="#ECEBEB"/>
</svg>
