<svg width="20" height="19" viewBox="0 0 20 19" fill="none" xmlns="http://www.w3.org/2000/svg">
<path d="M18.4615 3.07692H14.6154V2.30769C14.6154 1.69565 14.3723 1.10868 13.9395 0.675907C13.5067 0.243131 12.9197 0 12.3077 0H7.69231C7.08027 0 6.4933 0.243131 6.06052 0.675907C5.62775 1.10868 5.38462 1.69565 5.38462 2.30769V3.07692H1.53846C1.13044 3.07692 0.739122 3.23901 0.450605 3.52753C0.162087 3.81605 0 4.20736 0 4.61538V16.9231C0 17.3311 0.162087 17.7224 0.450605 18.0109C0.739122 18.2995 1.13044 18.4615 1.53846 18.4615H18.4615C18.8696 18.4615 19.2609 18.2995 19.5494 18.0109C19.8379 17.7224 20 17.3311 20 16.9231V4.61538C20 4.20736 19.8379 3.81605 19.5494 3.52753C19.2609 3.23901 18.8696 3.07692 18.4615 3.07692ZM6.92308 2.30769C6.92308 2.10368 7.00412 1.90802 7.14838 1.76376C7.29264 1.61951 7.4883 1.53846 7.69231 1.53846H12.3077C12.5117 1.53846 12.7074 1.61951 12.8516 1.76376C12.9959 1.90802 13.0769 2.10368 13.0769 2.30769V3.07692H6.92308V2.30769ZM18.4615 4.61538V8.61635C15.8652 10.0296 12.9561 10.7698 10 10.7692C7.04404 10.7698 4.13502 10.03 1.53846 8.61731V4.61538H18.4615ZM18.4615 16.9231H1.53846V10.35C4.17301 11.6387 7.06718 12.3083 10 12.3077C12.9329 12.3078 15.827 11.6378 18.4615 10.349V16.9231ZM7.69231 8.46154C7.69231 8.25753 7.77335 8.06187 7.91761 7.91761C8.06187 7.77335 8.25753 7.69231 8.46154 7.69231H11.5385C11.7425 7.69231 11.9381 7.77335 12.0824 7.91761C12.2266 8.06187 12.3077 8.25753 12.3077 8.46154C12.3077 8.66555 12.2266 8.86121 12.0824 9.00547C11.9381 9.14973 11.7425 9.23077 11.5385 9.23077H8.46154C8.25753 9.23077 8.06187 9.14973 7.91761 9.00547C7.77335 8.86121 7.69231 8.66555 7.69231 8.46154Z" fill="#6C5478"/>
</svg>
