<svg width="32" height="32" viewBox="0 0 32 32" fill="none" xmlns="http://www.w3.org/2000/svg">
<path d="M17.16 20.0934L13.7733 16.7467L13.8133 16.7067C16.0722 14.1962 17.7599 11.2258 18.76 8.00008H22.6667V5.33341H13.3333V2.66675H10.6667V5.33341H1.33334V8.00008H16.2267C15.3333 10.5601 13.92 13.0001 12 15.1334C10.76 13.7601 9.73334 12.2534 8.92001 10.6667H6.25334C7.22668 12.8401 8.56001 14.8934 10.2267 16.7467L3.44001 23.4401L5.33334 25.3334L12 18.6667L16.1467 22.8134L17.16 20.0934ZM24.6667 13.3334H22L16 29.3334H18.6667L20.16 25.3334H26.4933L28 29.3334H30.6667L24.6667 13.3334ZM21.1733 22.6667L23.3333 16.8934L25.4933 22.6667H21.1733Z" fill="#6C5478"/>
</svg>
