<svg width="16" height="13" viewBox="0 0 16 13" fill="none" xmlns="http://www.w3.org/2000/svg">
    <path d="M7.09358 12.663C6.87926 12.8788 6.58862 13 6.28557 13C5.98252 13 5.69187 12.8788 5.47755 12.663L0.334619 7.48392C0.120362 7.26809 0 6.97541 0 6.67023C0 6.36505 0.120362 6.07236 0.334619 5.85653L5.47755 0.677424C5.6931 0.467776 5.98179 0.351771 6.28145 0.354393C6.58111 0.357016 6.86776 0.478056 7.07966 0.691444C7.29155 0.904833 7.41175 1.1935 7.41435 1.49526C7.41696 1.79703 7.30176 2.08775 7.09358 2.30481L3.99982 5.51931L14.8571 5.51931C15.1602 5.51931 15.4509 5.64057 15.6653 5.85641C15.8796 6.07225 16 6.36499 16 6.67023C16 6.97547 15.8796 7.26821 15.6653 7.48404C15.4509 7.69988 15.1602 7.82114 14.8571 7.82114L3.99982 7.82114L7.09358 11.0356C7.30783 11.2515 7.4282 11.5442 7.4282 11.8493C7.4282 12.1545 7.30783 12.4472 7.09358 12.663Z"
          fill="#6C5478"/>
</svg>
