<svg width="33" height="33" viewBox="0 0 33 33" fill="none" xmlns="http://www.w3.org/2000/svg">
<path id="Vector" d="M28.7735 0.623291C29.7165 0.623291 30.6209 0.997893 31.2877 1.66469C31.9545 2.33148 32.3291 3.23585 32.3291 4.17885V29.0677C32.3291 30.0107 31.9545 30.9151 31.2877 31.5819C30.6209 32.2487 29.7165 32.6233 28.7735 32.6233H3.88466C2.94167 32.6233 2.0373 32.2487 1.3705 31.5819C0.703704 30.9151 0.329102 30.0107 0.329102 29.0677V4.17885C0.329102 3.23585 0.703704 2.33148 1.3705 1.66469C2.0373 0.997893 2.94167 0.623291 3.88466 0.623291H28.7735ZM27.8847 28.1788V18.7566C27.8847 17.2195 27.2741 15.7454 26.1872 14.6585C25.1003 13.5717 23.6262 12.9611 22.0891 12.9611C20.578 12.9611 18.818 13.8855 17.9647 15.2722V13.2988H13.0047V28.1788H17.9647V19.4144C17.9647 18.0455 19.0669 16.9255 20.4358 16.9255C21.0959 16.9255 21.7289 17.1877 22.1957 17.6545C22.6624 18.1212 22.9247 18.7543 22.9247 19.4144V28.1788H27.8847ZM7.22688 10.5077C8.01899 10.5077 8.77866 10.1931 9.33877 9.63296C9.89888 9.07285 10.2135 8.31318 10.2135 7.52107C10.2135 5.86774 8.88021 4.51662 7.22688 4.51662C6.43005 4.51662 5.66586 4.83316 5.10242 5.39661C4.53897 5.96005 4.22243 6.72424 4.22243 7.52107C4.22243 9.1744 5.57355 10.5077 7.22688 10.5077ZM9.69799 28.1788V13.2988H4.77355V28.1788H9.69799Z" fill="#EB9F42"/>
</svg>
