<svg width="21" height="28" viewBox="0 0 21 28" fill="none" xmlns="http://www.w3.org/2000/svg">
<path d="M10.3591 13.1072C9.37787 13.1072 8.43685 12.7515 7.74302 12.1183C7.0492 11.4852 6.65941 10.6265 6.65941 9.73112C6.65941 8.83574 7.0492 7.97703 7.74302 7.3439C8.43685 6.71077 9.37787 6.35508 10.3591 6.35508C11.3403 6.35508 12.2813 6.71077 12.9752 7.3439C13.669 7.97703 14.0588 8.83574 14.0588 9.73112C14.0588 10.1745 13.9631 10.6135 13.7771 11.0231C13.5912 11.4327 13.3187 11.8048 12.9752 12.1183C12.6316 12.4318 12.2238 12.6805 11.7749 12.8502C11.326 13.0198 10.8449 13.1072 10.3591 13.1072ZM10.3591 0.278198C7.61169 0.278198 4.97681 1.27413 3.03411 3.04689C1.0914 4.81966 0 7.22405 0 9.73112C0 16.8208 10.3591 27.2865 10.3591 27.2865C10.3591 27.2865 20.7182 16.8208 20.7182 9.73112C20.7182 7.22405 19.6268 4.81966 17.6841 3.04689C15.7414 1.27413 13.1065 0.278198 10.3591 0.278198Z" fill="#EB9F42"/>
</svg>
