<svg width="14" height="18" viewBox="0 0 14 18" fill="none" xmlns="http://www.w3.org/2000/svg">
<path d="M13.6668 9.00008C13.6668 8.77907 13.579 8.56711 13.4228 8.41083C13.2665 8.25455 13.0545 8.16675 12.8335 8.16675H6.5085L8.42516 6.25841C8.50286 6.18072 8.5645 6.08847 8.60655 5.98696C8.6486 5.88544 8.67024 5.77663 8.67024 5.66675C8.67024 5.55687 8.6486 5.44806 8.60655 5.34654C8.5645 5.24502 8.50286 5.15278 8.42516 5.07508C8.34746 4.99738 8.25522 4.93575 8.1537 4.8937C8.05219 4.85165 7.94338 4.83 7.8335 4.83C7.72361 4.83 7.61481 4.85165 7.51329 4.8937C7.41177 4.93575 7.31953 4.99738 7.24183 5.07508L3.9085 8.40841C3.83263 8.48767 3.77316 8.58112 3.7335 8.68341C3.65015 8.8863 3.65015 9.11386 3.7335 9.31675C3.77316 9.41904 3.83263 9.5125 3.9085 9.59175L7.24183 12.9251C7.3193 13.0032 7.41147 13.0652 7.51302 13.1075C7.61456 13.1498 7.72349 13.1716 7.8335 13.1716C7.94351 13.1716 8.05243 13.1498 8.15398 13.1075C8.25553 13.0652 8.34769 13.0032 8.42516 12.9251C8.50327 12.8476 8.56526 12.7554 8.60757 12.6539C8.64988 12.5523 8.67166 12.4434 8.67166 12.3334C8.67166 12.2234 8.64988 12.1145 8.60757 12.0129C8.56526 11.9114 8.50327 11.8192 8.42516 11.7417L6.5085 9.83341H12.8335C13.0545 9.83341 13.2665 9.74562 13.4228 9.58934C13.579 9.43306 13.6668 9.2211 13.6668 9.00008ZM11.1668 0.666748H2.8335C2.17045 0.666748 1.53457 0.93014 1.06573 1.39898C0.596888 1.86782 0.333496 2.50371 0.333496 3.16675V14.8334C0.333496 15.4965 0.596888 16.1323 1.06573 16.6012C1.53457 17.07 2.17045 17.3334 2.8335 17.3334H11.1668C11.8299 17.3334 12.4658 17.07 12.9346 16.6012C13.4034 16.1323 13.6668 15.4965 13.6668 14.8334V12.3334C13.6668 12.1124 13.579 11.9004 13.4228 11.7442C13.2665 11.5879 13.0545 11.5001 12.8335 11.5001C12.6125 11.5001 12.4005 11.5879 12.2442 11.7442C12.088 11.9004 12.0002 12.1124 12.0002 12.3334V14.8334C12.0002 15.0544 11.9124 15.2664 11.7561 15.4227C11.5998 15.579 11.3878 15.6667 11.1668 15.6667H2.8335C2.61248 15.6667 2.40052 15.579 2.24424 15.4227C2.08796 15.2664 2.00016 15.0544 2.00016 14.8334V3.16675C2.00016 2.94573 2.08796 2.73377 2.24424 2.57749C2.40052 2.42121 2.61248 2.33341 2.8335 2.33341H11.1668C11.3878 2.33341 11.5998 2.42121 11.7561 2.57749C11.9124 2.73377 12.0002 2.94573 12.0002 3.16675V5.66675C12.0002 5.88776 12.088 6.09972 12.2442 6.256C12.4005 6.41228 12.6125 6.50008 12.8335 6.50008C13.0545 6.50008 13.2665 6.41228 13.4228 6.256C13.579 6.09972 13.6668 5.88776 13.6668 5.66675V3.16675C13.6668 2.50371 13.4034 1.86782 12.9346 1.39898C12.4658 0.93014 11.8299 0.666748 11.1668 0.666748Z" fill="#6C5478"/>
</svg>
