<svg width="21" height="16" viewBox="0 0 21 16" fill="none" xmlns="http://www.w3.org/2000/svg">
<path d="M2.07182 15.6235C1.50207 15.6235 1.01416 15.4382 0.60808 15.0676C0.202004 14.6971 -0.000688847 14.2521 1.75876e-06 13.7329V2.38936C1.75876e-06 1.86945 0.20304 1.42422 0.609116 1.05367C1.01519 0.683113 1.50276 0.498151 2.07182 0.498781H18.6464C19.2161 0.498781 19.704 0.684058 20.1101 1.05461C20.5162 1.42517 20.7189 1.87008 20.7182 2.38936V13.7329C20.7182 14.2528 20.5151 14.698 20.1091 15.0686C19.703 15.4391 19.2154 15.6241 18.6464 15.6235H2.07182ZM10.3591 9.00641L18.6464 4.27995V2.38936L10.3591 7.11582L2.07182 2.38936V4.27995L10.3591 9.00641Z" fill="#EB9F42"/>
</svg>
