<svg width="40" height="48" viewBox="0 0 40 48" fill="none" xmlns="http://www.w3.org/2000/svg">
<path d="M36.1415 35.6572C37.2312 35.6572 38.1498 36.1326 38.8973 37.0835C39.6449 38.0343 40.0124 39.1436 39.9997 40.4115L24.738 47.5429L11.4339 42.7886V21.3943H15.14L28.9573 27.7888C29.9456 28.2801 30.4397 29.1676 30.4397 30.4512C30.4397 31.1961 30.2243 31.8458 29.7935 32.4005C29.3627 32.9551 28.8179 33.2483 28.159 33.28H22.8374L19.5114 31.6873L18.8842 33.9219L22.8374 35.6572H36.1415ZM28.5392 2.92389C29.8822 0.974629 31.5928 0 33.6707 0C35.3939 0 36.8511 0.792381 38.0421 2.37714C39.2331 3.96191 39.8666 5.78439 39.9427 7.84458C39.9427 9.47688 39.3091 11.4261 38.0421 13.6924C36.775 15.9586 35.527 17.8524 34.2979 19.3737C33.0689 20.8951 31.1493 23.1534 28.5392 26.1486C25.9037 23.1534 23.9651 20.8951 22.7234 19.3737C21.4817 17.8524 20.2336 15.9586 18.9792 13.6924C17.7248 11.4261 17.1103 9.47688 17.1357 7.84458C17.1357 5.6893 17.7502 3.86682 18.9792 2.37714C20.2083 0.887467 21.6907 0.0950858 23.4266 0C25.4539 0 27.1581 0.974629 28.5392 2.92389ZM0 21.3943H7.63274V47.5429H0V21.3943Z" fill="#FDFCFC"/>
</svg>
