<svg width="21" height="20" viewBox="0 0 21 20" fill="none" xmlns="http://www.w3.org/2000/svg">
<path d="M18.6882 13.3963L15.7587 13.0911C15.4143 13.0542 15.0651 13.089 14.7375 13.1929C14.4099 13.2968 14.1124 13.4671 13.8673 13.691L11.7451 15.6275C8.47106 14.108 5.80985 11.6796 4.1447 8.69191L6.27836 6.74489C6.77429 6.29234 7.01649 5.66088 6.93576 5.01889L6.60129 2.36673C6.5359 1.85332 6.26589 1.37979 5.84267 1.03628C5.41945 0.692778 4.87257 0.503293 4.30616 0.503908H2.3109C1.00764 0.503908 -0.0764964 1.4932 0.00423674 2.68246C0.615502 11.6703 8.49275 18.848 18.3307 19.4058C19.6339 19.4795 20.7181 18.4902 20.7181 17.3009V15.4802C20.7296 14.4172 19.8531 13.5226 18.6882 13.3963Z" fill="#EB9F42"/>
</svg>
