<svg width="16" height="13" viewBox="0 0 16 13" fill="none" xmlns="http://www.w3.org/2000/svg">
<path d="M8.90642 0.321995C9.12074 0.115822 9.41138 0 9.71443 0C10.0175 0 10.3081 0.115822 10.5224 0.321995L15.6654 5.27092C15.8796 5.47715 16 5.75683 16 6.04845C16 6.34007 15.8796 6.61975 15.6654 6.82598L10.5224 11.7749C10.3069 11.9752 10.0182 12.0861 9.71855 12.0836C9.41889 12.0811 9.13224 11.9654 8.92034 11.7615C8.70845 11.5576 8.58825 11.2818 8.58565 10.9934C8.58304 10.7051 8.69824 10.4273 8.90642 10.2198L12.0002 7.14821L1.14287 7.14821C0.839765 7.14821 0.549071 7.03234 0.33474 6.8261C0.12041 6.61985 0 6.34012 0 6.04845C0 5.75678 0.12041 5.47705 0.33474 5.2708C0.549071 5.06456 0.839765 4.94869 1.14287 4.94869L12.0002 4.94869L8.90642 1.87706C8.69217 1.67082 8.5718 1.39114 8.5718 1.09953C8.5718 0.807909 8.69217 0.528231 8.90642 0.321995Z" fill="#6C5478"/>
</svg>
