<svg width="20" height="10" viewBox="0 0 20 10" fill="none" xmlns="http://www.w3.org/2000/svg">
<path d="M5.8335 7.5C6.52794 7.5 7.11822 7.25694 7.60433 6.77083C8.09044 6.28472 8.3335 5.69444 8.3335 5C8.3335 4.30556 8.09044 3.71528 7.60433 3.22917C7.11822 2.74306 6.52794 2.5 5.8335 2.5C5.13905 2.5 4.54877 2.74306 4.06266 3.22917C3.57655 3.71528 3.3335 4.30556 3.3335 5C3.3335 5.69444 3.57655 6.28472 4.06266 6.77083C4.54877 7.25694 5.13905 7.5 5.8335 7.5ZM5.8335 10C4.44461 10 3.26405 9.51389 2.29183 8.54167C1.31961 7.56944 0.833496 6.38889 0.833496 5C0.833496 3.61111 1.31961 2.43056 2.29183 1.45833C3.26405 0.486111 4.44461 0 5.8335 0C6.9585 0 7.94127 0.319445 8.78183 0.958333C9.62239 1.59722 10.2091 2.38889 10.5418 3.33333H17.521L19.1668 4.97917L16.2502 8.3125L14.1668 6.66667L12.5002 8.33333L10.8335 6.66667H10.5418C10.1946 7.66667 9.59044 8.47222 8.72933 9.08333C7.86822 9.69444 6.90294 10 5.8335 10Z" fill="#6C5478"/>
</svg>
