<svg width="33" height="27" viewBox="0 0 33 27" fill="none" xmlns="http://www.w3.org/2000/svg">
<path id="Vector" d="M32.3291 3.68061C31.1513 4.21598 29.8817 4.5678 28.5662 4.73606C29.9123 3.92535 30.9524 2.64046 31.4419 1.09553C30.1723 1.86034 28.765 2.39572 27.2813 2.70164C26.0729 1.38616 24.375 0.621338 22.4477 0.621338C18.853 0.621338 15.9161 3.55824 15.9161 7.18348C15.9161 7.70356 15.9773 8.20834 16.0844 8.68252C10.6389 8.40719 5.78991 5.79151 2.56237 1.82975C1.99641 2.79342 1.67518 3.92535 1.67518 5.11847C1.67518 7.39763 2.82241 9.41675 4.59679 10.564C3.51075 10.564 2.50119 10.258 1.614 9.79916V9.84505C1.614 13.0267 3.87786 15.6883 6.87595 16.2848C5.91339 16.5482 4.90286 16.5849 3.92375 16.3919C4.33921 17.6959 5.15287 18.8369 6.25035 19.6545C7.34783 20.4721 8.67395 20.9253 10.0423 20.9502C7.7228 22.7864 4.84764 23.779 1.88933 23.7647C1.36925 23.7647 0.849178 23.7341 0.329102 23.673C3.23541 25.5391 6.69239 26.6252 10.3941 26.6252C22.4477 26.6252 29.071 16.6213 29.071 7.9483C29.071 7.65767 29.071 7.38233 29.0557 7.0917C30.3406 6.17392 31.4419 5.0114 32.3291 3.68061Z" fill="#EB9F42"/>
</svg>
