<svg width="32" height="31" viewBox="0 0 32 31" fill="none" xmlns="http://www.w3.org/2000/svg">
<path d="M31.7896 27.4009C29.7583 23.9688 26.5865 21.2945 22.7847 19.8086C24.6753 18.4435 26.0718 16.5403 26.7765 14.3687C27.4811 12.197 27.4582 9.86698 26.7108 7.70859C25.9635 5.5502 24.5297 3.67289 22.6126 2.34259C20.6954 1.01229 18.3921 0.29644 16.0289 0.29644C13.6656 0.29644 11.3623 1.01229 9.44516 2.34259C7.52801 3.67289 6.09423 5.5502 5.34691 7.70859C4.59959 9.86698 4.57662 12.197 5.28126 14.3687C5.9859 16.5403 7.38242 18.4435 9.27301 19.8086C5.47123 21.2945 2.29941 23.9688 0.268145 27.4009C0.14228 27.5958 0.0583919 27.813 0.0214672 28.0397C-0.0154575 28.2663 -0.00466495 28.4979 0.0532035 28.7204C0.111072 28.943 0.214835 29.1521 0.358324 29.3353C0.501812 29.5185 0.682097 29.6721 0.888461 29.7869C1.09483 29.9017 1.32305 29.9753 1.55958 30.0035C1.79611 30.0317 2.0361 30.0138 2.2653 29.9509C2.4945 29.8879 2.70822 29.7813 2.89376 29.6373C3.07929 29.4933 3.23286 29.3148 3.34532 29.1125C6.02989 24.6453 10.7709 21.9809 16.0289 21.9809C21.2869 21.9809 26.0279 24.6467 28.7124 29.1125C28.9562 29.4898 29.3427 29.7611 29.7905 29.869C30.2382 29.9769 30.7119 29.9129 31.1115 29.6906C31.5112 29.4684 31.8053 29.1052 31.9319 28.6779C32.0584 28.2506 32.0074 27.7927 31.7896 27.4009ZM8.32481 11.1408C8.32481 9.67388 8.77665 8.2399 9.62318 7.0202C10.4697 5.80049 11.6729 4.84985 13.0807 4.28848C14.4884 3.72711 16.0374 3.58024 17.5319 3.86642C19.0263 4.1526 20.399 4.85899 21.4765 5.89626C22.5539 6.93354 23.2876 8.2551 23.5849 9.69384C23.8822 11.1326 23.7296 12.6239 23.1465 13.9791C22.5634 15.3344 21.5759 16.4928 20.309 17.3077C19.0421 18.1227 17.5526 18.5577 16.0289 18.5577C13.9864 18.5554 12.0282 17.7733 10.5839 16.3828C9.1396 14.9924 8.32717 13.1072 8.32481 11.1408Z" fill="#886B97"/>
</svg>
