<svg width="40" height="41" viewBox="0 0 40 41" fill="none" xmlns="http://www.w3.org/2000/svg">
<path d="M30.5014 15.0072H21.0014V19.3848C21.0014 22.4883 18.9827 25.0132 16.5014 25.0132C14.0202 25.0132 12.0014 22.4883 12.0014 19.3848V9.87919L7.94518 12.9279C6.73892 13.8269 6.00143 15.4606 6.00143 17.2117V20.9092L1.00143 24.5207C0.0451755 25.2086 -0.286074 26.7408 0.270175 27.9368L5.27018 38.7714C5.82018 39.9674 7.04518 40.3739 8.00143 39.686L14.4639 35.0192H23.0014C25.2077 35.0192 27.0014 32.7756 27.0014 30.0162H28.0014C29.1077 30.0162 30.0014 28.8983 30.0014 27.5147V22.5117H30.5014C31.3327 22.5117 32.0014 21.6753 32.0014 20.6356V16.8834C32.0014 15.8437 31.3327 15.0072 30.5014 15.0072ZM39.7327 12.0836L34.7327 1.24905C34.1827 0.053029 32.9577 -0.353463 32.0014 0.334447L25.5389 5.00129H19.1514C18.4014 5.00129 17.6702 5.26707 17.0327 5.75955L14.9389 7.39334C14.3514 7.84673 14.0014 8.6519 14.0014 9.51178V19.3848C14.0014 21.1124 15.1202 22.5117 16.5014 22.5117C17.8827 22.5117 19.0014 21.1124 19.0014 19.3848V12.5058H30.5014C32.4327 12.5058 34.0014 14.4679 34.0014 16.8834V19.1112L39.0014 15.4997C39.9577 14.804 40.2827 13.2797 39.7327 12.0836Z" fill="#FDFCFC"/>
</svg>
