<svg width="31" height="29" viewBox="0 0 31 29" fill="none" xmlns="http://www.w3.org/2000/svg">
<path id="Vector" d="M21.9244 17.3732C22.045 16.4657 22.1354 15.5582 22.1354 14.6232C22.1354 13.6883 22.045 12.7808 21.9244 11.8733H27.0173C27.2584 12.7533 27.4091 13.6745 27.4091 14.6232C27.4091 15.572 27.2584 16.4932 27.0173 17.3732M19.2574 25.018C20.1615 23.4918 20.8546 21.8418 21.3368 20.1231H25.7818C24.322 22.417 22.006 24.1545 19.2574 25.018ZM18.8807 17.3732H11.829C11.6783 16.4657 11.5879 15.5582 11.5879 14.6232C11.5879 13.6883 11.6783 12.767 11.829 11.8733H18.8807C19.0163 12.767 19.1218 13.6883 19.1218 14.6232C19.1218 15.5582 19.0163 16.4657 18.8807 17.3732ZM15.3549 25.568C14.1042 23.918 13.0947 22.0893 12.4769 20.1231H18.2328C17.615 22.0893 16.6055 23.918 15.3549 25.568ZM9.32777 9.12336H4.92798C6.37276 6.82333 8.68708 5.08299 11.4373 4.22846C10.5332 5.75468 9.85514 7.40464 9.32777 9.12336ZM4.92798 20.1231H9.32777C9.85514 21.8418 10.5332 23.4918 11.4373 25.018C8.69285 24.1541 6.38179 22.4162 4.92798 20.1231ZM3.69242 17.3732C3.45134 16.4932 3.30066 15.572 3.30066 14.6232C3.30066 13.6745 3.45134 12.7533 3.69242 11.8733H8.78533C8.66479 12.7808 8.57438 13.6883 8.57438 14.6232C8.57438 15.5582 8.66479 16.4657 8.78533 17.3732M15.3549 3.66473C16.6055 5.31469 17.615 7.15715 18.2328 9.12336H12.4769C13.0947 7.15715 14.1042 5.31469 15.3549 3.66473ZM25.7818 9.12336H21.3368C20.8652 7.4204 20.1669 5.77654 19.2574 4.22846C22.0299 5.09469 24.3353 6.84091 25.7818 9.12336ZM15.3549 0.873535C7.0224 0.873535 0.287109 7.0609 0.287109 14.6232C0.287109 18.2699 1.8746 21.7672 4.70036 24.3457C6.09953 25.6225 7.76058 26.6353 9.58869 27.3263C11.4168 28.0173 13.3761 28.3729 15.3549 28.3729C19.3511 28.3729 23.1836 26.9243 26.0094 24.3457C28.8351 21.7672 30.4226 18.2699 30.4226 14.6232C30.4226 12.8176 30.0329 11.0296 29.2757 9.36145C28.5184 7.69326 27.4086 6.17751 26.0094 4.90073C24.6102 3.62395 22.9492 2.61116 21.1211 1.92017C19.293 1.22918 17.3336 0.873535 15.3549 0.873535Z" fill="#EB9F42"/>
</svg>
